<svg version="1.1" id="Layer_1" xmlns="http://www.w3.org/2000/svg" xmlns:xlink="http://www.w3.org/1999/xlink" x="0px" y="0px" viewBox="0 0 400 103" style="enable-background:new 0 0 400 103;" xml:space="preserve">
<g>
	<path d="M12.6,29.6h12c5.6,0,8.8,2.5,9,7.1l0.4,8.6h10.4l-0.4-9.8c-0.3-6.8-4.2-10.9-10.7-11.3C39.1,23.7,43,19.7,43,14
		c0-7.7-7.4-12.7-18.8-12.7H2.4v44h10.1V29.6z M12.6,8.2h11.3c5.5,0,9,2.8,9,7.2c0,4.3-3.5,7.1-9,7.1H12.6V8.2z"></path>
	<polygon points="86.6,37.6 60.3,37.6 60.3,26.5 82.9,26.5 82.9,19.7 60.3,19.7 60.3,8.7 86.2,8.7 86.2,1.2 50.4,1.2 50.4,45.3 
		86.6,45.3 	"></polygon>
	<polygon points="102.8,45.3 114.8,45.3 125.5,12 136.2,45.3 148,45.3 161.8,1.2 151.4,1.2 141.8,34 131.3,1.2 119.8,1.2 109.4,34 
		99.8,1.2 89.3,1.2 102.8,45.1 	"></polygon>
	<path d="M176.2,29.6h12c5.6,0,8.8,2.5,9,7.1l0.4,8.6h10.4l-0.4-9.8c-0.3-6.8-4.2-10.9-10.7-11.3c6-0.5,9.9-4.5,9.9-10.2
		c0-7.7-7.4-12.7-18.9-12.7h-21.8v44h10.1V29.6z M176.2,8.2h11.3c5.5,0,9,2.8,9,7.2c0,4.3-3.5,7.1-9,7.1h-11.3V8.2z"></path>
	<rect x="214.7" y="1.2" width="9.9" height="44"></rect>
	<polygon points="245.1,45.3 255.3,45.3 255.3,8.9 270.2,8.9 270.2,1.2 230.2,1.2 230.2,8.9 245.1,8.9 	"></polygon>
	<rect x="275.5" y="1.2" width="9.9" height="44"></rect>
	<polygon points="302.5,13.6 327.7,45.2 327.8,45.3 338.2,45.3 338.2,1.2 328.2,1.2 328.6,32.7 303.3,1.2 292.9,1.2 292.9,45.3 
		302.9,45.3 	"></polygon>
	<path d="M369.3,21.5V28h21c-1.8,6.9-8.5,11.3-17.1,11.3c-11,0-18.4-6.5-18.4-16.2c0-9.3,7.5-15.8,18.2-15.8
		c8.2,0,14.5,3.9,16.2,9.9l0.1,0.2l10.1-0.3l0-0.3C397.7,6.9,386.9,0,372.9,0c-16.8,0-28.5,9.6-28.5,23.5
		c0,13.4,10.6,22.7,25.8,22.7c9.4,0,17.4-4.1,20.4-10.4l-0.2,9.6h9.7V21.5H369.3z"></path>
	<polygon points="14.9,100.3 25.1,100.3 25.1,63.9 39.9,63.9 39.9,56.2 0,56.2 0,63.9 14.9,63.9 	"></polygon>
	<polygon points="55.4,82.1 77.9,82.1 77.9,100.3 88.1,100.3 88.1,56.2 77.9,56.2 77.9,74 55.4,74 55.4,56.2 45.3,56.2 45.3,100.3 
		55.4,100.3 	"></polygon>
	<polygon points="132.2,92.7 105.9,92.7 105.9,81.5 128.5,81.5 128.5,74.7 105.9,74.7 105.9,63.7 131.8,63.7 131.8,56.2 95.9,56.2 
		95.9,100.3 132.2,100.3 	"></polygon>
	<path d="M177.8,62.6c8.7,0,15.2,4.7,15.8,11.4l0,0.2l10.1-0.2l0-0.2C203.1,62.7,192.4,55,177.8,55c-16,0-27.2,9.6-27.2,23.3
		s11.2,23.3,27.2,23.3c14.6,0,25.2-7.8,25.9-19.1l0-0.3h-10.1l0,0.2c-0.7,6.7-7.2,11.3-15.8,11.3c-10,0-16.9-6.4-16.9-15.4
		C160.8,69.1,167.8,62.6,177.8,62.6z"></path>
	<path d="M230.8,103c4.9,0,10.1-1.3,15.4-4c14.5-7.5,20.3-21.3,14-33.5c-3.1-5.9-8.2-9.9-14.6-11.3c-6.5-1.4-13.6-0.2-20.8,3.5
		c-7,3.6-12.3,9-14.8,15c-2.5,6-2.2,12.6,0.8,18.5C214.8,98.8,222.2,103,230.8,103z M228.2,64.4c3.1-1.6,6.3-2.4,9.3-2.4
		c5.7,0,10.7,2.9,13.4,8.2c2,3.9,2.3,8.2,0.8,12.1c-1.5,3.9-4.8,7.4-9.2,9.7c-9.1,4.7-18.4,2.4-22.6-5.7
		C215.7,78.2,219.1,69.1,228.2,64.4z"></path>
	<path d="M288.8,56.2H268v44h20.8c16.9,0,27.4-8.4,27.4-22S305.6,56.2,288.8,56.2z M288.4,93h-10.3V63.5h10.3
		c10.9,0,17.6,5.7,17.6,14.8C306,87.4,299.3,93,288.4,93z"></path>
	<polygon points="332.3,81.5 354.9,81.5 354.9,74.7 332.3,74.7 332.3,63.7 358.2,63.7 358.2,56.2 322.3,56.2 322.3,100.3 
		358.6,100.3 358.6,92.7 332.3,92.7 	"></polygon>
</g>
</svg>